<?xml version="1.0" encoding="utf-8"?>
<!-- Generator: Adobe Illustrator 23.1.0, SVG Export Plug-In . SVG Version: 6.00 Build 0)  -->
<svg version="1.1" id="Livello_1" xmlns="http://www.w3.org/2000/svg" xmlns:xlink="http://www.w3.org/1999/xlink" x="0px" y="0px"
	 viewBox="0 0 141.7 113.4" style="enable-background:new 0 0 141.7 113.4;" xml:space="preserve" width="300" height="150">
<style type="text/css">
	.st0{fill:url(#SVGID_1_);}
	.st1{fill:url(#SVGID_2_);}
	.st2{fill:url(#SVGID_3_);}
	.st3{fill:#C3353D;}
	.st4{fill:#2E2D2C;}
</style>
<title>logo-dark</title>
<g>
	<linearGradient id="SVGID_1_" gradientUnits="userSpaceOnUse" x1="-3.3221" y1="77.4497" x2="177.1403" y2="24.9364">
		<stop  offset="0" style="stop-color:#7EA5B9"/>
		<stop  offset="1" style="stop-color:#2072B9"/>
	</linearGradient>
	<path class="st0" d="M120.8,61.5c-0.7,0-1.4-0.2-1.9-0.7c-1.1-1-1.2-2.8-0.1-3.9c11.7-12.5,16.3-24.3,12.3-31.4
		c-0.2-0.4-0.4-0.7-0.5-0.9c-0.4-0.7-0.4-0.7-1.2-1.3c-1.2-0.9-1.5-2.6-0.6-3.9c0.9-1.2,2.6-1.5,3.9-0.6c1.7,1.2,2.2,1.8,2.9,3.3
		c0.1,0.2,0.2,0.5,0.4,0.8c5.2,9.5,0.4,23.3-13.1,37.9C122.3,61.2,121.6,61.5,120.8,61.5z"/>
</g>
<g>
	<linearGradient id="SVGID_2_" gradientUnits="userSpaceOnUse" x1="-11.8226" y1="48.238" x2="168.6399" y2="-4.2753">
		<stop  offset="0" style="stop-color:#7EA5B9"/>
		<stop  offset="1" style="stop-color:#2072B9"/>
	</linearGradient>
	<path class="st1" d="M68.1,28.6C67,28.6,66,28,65.5,27c-0.6-1.4,0-3.1,1.4-3.7c14.4-6.5,23.8-9.3,34.7-10.2c1.5-0.1,2.9,1,3,2.5
		c0.1,1.5-1,2.9-2.5,3c-10.2,0.9-19.1,3.5-32.9,9.7C68.8,28.6,68.5,28.6,68.1,28.6z"/>
</g>
<g>
	<linearGradient id="SVGID_3_" gradientUnits="userSpaceOnUse" x1="0.155" y1="89.399" x2="180.6174" y2="36.8857">
		<stop  offset="0" style="stop-color:#7EA5B9"/>
		<stop  offset="1" style="stop-color:#2072B9"/>
	</linearGradient>
	<path class="st2" d="M30.5,105.1c-11.9,0-20.8-3.5-24.8-10.6C0.5,85,5.3,71.2,18.9,56.5c1-1.1,2.8-1.2,3.9-0.1
		c1.1,1,1.2,2.8,0.1,3.9C11.3,72.9,6.7,84.6,10.6,91.8c3.3,6,12.8,8.7,26.1,7.4C51,97.8,67.9,92,84.3,83c2.2-1.2,4.4-2.5,6.6-3.8
		c1.3-0.8,3-0.4,3.8,0.9c0.8,1.3,0.4,3-0.9,3.8c-2.2,1.3-4.5,2.7-6.8,3.9C66.3,99.2,46,105.1,30.5,105.1z"/>
</g>
<circle class="st3" cx="117.5" cy="17" r="8.7"/>
<path class="st4" d="M26,76.3l8.7-43.7c0-0.2,0.3-0.4,0.5-0.4h30c0.7,0,1.3,0.7,1.2,1.4l-1.3,6.3c-0.1,0.6-0.6,1-1.2,1H45.6
	c-0.6,0-1,0.4-1.2,1l-1.4,6.9c-0.1,0.7,0.4,1.4,1.2,1.4H60c0.7,0,1.3,0.7,1.2,1.4l-1.3,6.3c-0.1,0.6-0.6,1-1.2,1H42
	c-0.6,0-1,0.4-1.2,1l-1.4,7.1c-0.1,0.7,0.4,1.4,1.2,1.4H58c0.7,0,1.3,0.7,1.2,1.4L58,75.9c-0.1,0.6-0.6,1-1.2,1H26.5
	C26.2,76.9,25.9,76.6,26,76.3z"/>
<path class="st4" d="M89.5,45.3c-0.3,0-0.6-0.3-0.5-0.6c0.2-1.4-0.1-2.5-0.8-3.3c-0.8-0.9-2.2-1.4-4.2-1.4c-2.7,0-5.4,1.9-5.8,4.1
	c-0.7,3.3,2.9,4.3,5.8,5.2c6.6,1.9,16.7,2.7,14.3,14.7C96.3,73.4,86.7,77.8,77,77.8c-9.5,0-17.3-2.9-15.7-14.2c0.1-0.6,0.6-1,1.2-1
	c2.1,0,6.9,0,9.3,0c0.7,0,1.2,0.6,1.2,1.3c-0.2,3.4,2.2,5.2,5.9,5.2c2.7,0,6.4-1.5,7-4.5c1.2-6.1-7.6-4.8-15.9-9
	c-3.8-2-5.1-6.1-4.2-10.9c2.6-10.6,11.9-13.5,20.6-13.5c8.4,0,16.4,3.1,14.3,13.1c-0.1,0.5-0.6,0.9-1.2,0.9L89.5,45.3L89.5,45.3z"/>
<path class="st4" d="M97.8,76.3l8.7-43.7c0-0.2,0.3-0.4,0.5-0.4h10.5c0.3,0,0.6,0.3,0.5,0.6l-8.7,43.7c0,0.2-0.3,0.4-0.5,0.4H98.3
	C97.9,76.9,97.7,76.6,97.8,76.3z"/>
</svg>
